<?xml version="1.0"?>
<!-- Converted with SVG Converter - Version 0.9.5 (Compiled Mon May 30 09:08:51 2011) - Copyright (C) 2011 Nokia -->
<svg xmlns="http://www.w3.org/2000/svg" width="96px" x="0px" version="1.0" y="0px" height="96px" viewBox="0 0 96 96" xmlns:xlink="http://www.w3.org/1999/xlink" baseProfile="tiny" xml:space="preserve">
 <g id="DO_NOT_EDIT_-_BOUNDING_BOX">
  <rect width="96" fill="none" height="96" id="BOUNDING_BOX"/>
 </g>
 <g id="DO_NOT_EDIT_-_SHADOW">
  <path stroke-opacity="0.4" fill-opacity="0.4" id="SHADOW" d="M88.023,49c0,29.633-10.364,40-40,40c-29.635,0-40-10.367-40-40c0-29.634,10.366-40,40-40&#xd;&#xa;&#x9;&#x9;C77.659,9,88.023,19.365,88.023,49z"/>
 </g>
 <g id="TURQUOISE">
  <linearGradient id="GRAY_2_1_" y1="8.0107" x1="47.9995" y2="87.9897" gradientUnits="userSpaceOnUse" x2="47.9995">
   <stop offset="0.0364" style="stop-color:#7A5916"/>
   <stop offset="0.3174" style="stop-color:#714F17"/>
   <stop offset="0.7912" style="stop-color:#59351A"/>
   <stop offset="1" style="stop-color:#4C271B"/>
  </linearGradient>
  <path fill="url(#GRAY_2_1_)" fill-rule="evenodd" id="GRAY_2" d="M8,47.989c0,29.633,10.365,40,40,40&#xd;&#xa;&#x9;&#x9;c29.637,0,40-10.367,40-40c0-28.985-9.926-39.53-38.091-39.979h-3.817C17.928,8.459,8,19.004,8,47.989z"/>
  <linearGradient id="HIGHLIGHT_GRA2_1_" y1="8" x1="47.9995" y2="88.0005" gradientUnits="userSpaceOnUse" x2="47.9995">
   <stop offset="0.0364" style="stop-color:#F2F2F2"/>
   <stop offset="0.1217" style="stop-color:#E8E8E8"/>
   <stop offset="0.266" style="stop-color:#CECECE"/>
   <stop offset="0.4519" style="stop-color:#A2A2A2"/>
   <stop offset="0.672" style="stop-color:#666666"/>
   <stop offset="0.9184" style="stop-color:#1B1B1B"/>
   <stop offset="1" style="stop-color:#000000"/>
  </linearGradient>
  <path stroke-opacity="0.4" fill="url(#HIGHLIGHT_GRA2_1_)" fill-opacity="0.4" id="HIGHLIGHT_GRA2" d="M48,8C18.365,8,8,18.365,8,48c0,29.633,10.365,40,40,40&#xd;&#xa;&#x9;&#x9;c29.637,0,40-10.367,40-40C88,18.365,77.637,8,48,8z M48,87.023C18.842,87.023,9,77.176,9,48S18.842,8.977,48,8.977&#xd;&#xa;&#x9;&#x9;S87,18.824,87,48S77.158,87.023,48,87.023z"/>
 </g>
 <g id="SUDOKU_ICON">
  <g>
   <path stroke-opacity="0.05" fill-opacity="0.05" d="M48.32,57.53c-2.895,0-5.162,2.314-5.162,5.27c0,1.163,0.363,2.25,1.03,3.104&#xd;&#xa;&#x9;&#x9;&#x9;c-0.24,0.392-0.37,0.844-0.37,1.31v0.863c0,1.339,1.063,2.437,2.432,2.499l0.249,0.005c0.366,0,0.776-0.031,1.073-0.079&#xd;&#xa;&#x9;&#x9;&#x9;c1.428-0.164,2.75-0.78,3.721-1.731c0.961-0.931,2.105-2.63,2.105-5.443C53.398,59.859,51.357,57.53,48.32,57.53z M67.523,46.833&#xd;&#xa;&#x9;&#x9;&#x9;c0.404-0.454,0.637-1.049,0.637-1.667v-0.887c0-1.379-1.121-2.5-2.5-2.5h-3.73c-1.25,0-2.314,0.932-2.477,2.166l-0.502,3.731&#xd;&#xa;&#x9;&#x9;&#x9;c-0.08,0.571,0.049,1.162,0.348,1.652c-0.193,0.237-0.342,0.51-0.438,0.805l-0.264,0.801c-0.361,1.094,0.068,2.287,1.045,2.902&#xd;&#xa;&#x9;&#x9;&#x9;c0.863,0.539,2.086,0.861,3.27,0.861c3.08,0,5.402-2.217,5.402-5.156C68.314,48.556,68.037,47.61,67.523,46.833z"/>
   <path stroke-opacity="0.07" fill-opacity="0.07" d="M66.857,46.77c0.494-0.367,0.803-0.954,0.803-1.604v-0.887c0-1.104-0.898-2-2-2h-3.73&#xd;&#xa;&#x9;&#x9;&#x9;c-1,0-1.852,0.746-1.98,1.733l-0.504,3.733c-0.082,0.587,0.107,1.19,0.51,1.629c-0.285,0.236-0.502,0.551-0.619,0.915&#xd;&#xa;&#x9;&#x9;&#x9;l-0.264,0.801c-0.289,0.876,0.055,1.83,0.836,2.322c0.785,0.491,1.908,0.785,3.004,0.785c2.795,0,4.902-2.002,4.902-4.656&#xd;&#xa;&#x9;&#x9;&#x9;C67.814,48.491,67.473,47.516,66.857,46.77z M48.32,58.03c-2.614,0-4.662,2.095-4.662,4.77c0,1.192,0.42,2.285,1.169,3.082&#xd;&#xa;&#x9;&#x9;&#x9;c-0.326,0.364-0.509,0.839-0.509,1.332v0.863c0,1.071,0.848,1.949,1.942,1.999c0,0,0.234,0.005,0.238,0.005&#xd;&#xa;&#x9;&#x9;&#x9;c0.348,0,0.727-0.029,1.017-0.076c1.318-0.151,2.537-0.718,3.43-1.594c0.891-0.863,1.953-2.445,1.953-5.084&#xd;&#xa;&#x9;&#x9;&#x9;C52.898,60.159,51.059,58.03,48.32,58.03z"/>
   <path stroke-opacity="0.1" fill-opacity="0.1" d="M66.006,46.625c0.662-0.157,1.154-0.752,1.154-1.459v-0.887c0-0.827-0.674-1.5-1.5-1.5h-3.73&#xd;&#xa;&#x9;&#x9;&#x9;c-0.75,0-1.389,0.56-1.486,1.3l-0.502,3.736c-0.064,0.46,0.094,0.933,0.424,1.266c0.164,0.164,0.367,0.287,0.586,0.36&#xd;&#xa;&#x9;&#x9;&#x9;c-0.082,0.016-0.164,0.038-0.24,0.068c-0.43,0.158-0.758,0.5-0.9,0.937l-0.264,0.802c-0.217,0.656,0.041,1.372,0.627,1.741&#xd;&#xa;&#x9;&#x9;&#x9;c0.709,0.444,1.732,0.709,2.738,0.709c2.51,0,4.402-1.787,4.402-4.156C67.314,48.353,66.83,47.299,66.006,46.625z M63.232,49.749&#xd;&#xa;&#x9;&#x9;&#x9;c-0.047,0.047-0.166,0.098-0.32,0.098c-0.422,0-0.787-0.146-0.916-0.224c-0.09-0.053-0.184-0.096-0.281-0.129&#xd;&#xa;&#x9;&#x9;&#x9;c0.211-0.024,0.469-0.048,0.803-0.048c0.596,0,0.723,0.126,0.725,0.126C63.248,49.589,63.248,49.642,63.232,49.749z M48.32,58.53&#xd;&#xa;&#x9;&#x9;&#x9;c-2.334,0-4.162,1.875-4.162,4.27c0,1.296,0.538,2.405,1.432,3.104c-0.098,0.055-0.189,0.119-0.274,0.195&#xd;&#xa;&#x9;&#x9;&#x9;c-0.316,0.284-0.497,0.69-0.497,1.115v0.863c0,0.804,0.634,1.462,1.453,1.499l0.228,0.005c0.326,0,0.676-0.027,0.96-0.073&#xd;&#xa;&#x9;&#x9;&#x9;c1.207-0.139,2.324-0.657,3.139-1.456c0.822-0.796,1.801-2.261,1.801-4.725C52.398,60.458,50.76,58.53,48.32,58.53z&#xd;&#xa;&#x9;&#x9;&#x9; M48.228,62.932c0,0-0.026-0.048-0.026-0.192c0-0.12,0.017-0.222,0.038-0.297c0.031,0.094,0.064,0.24,0.081,0.455&#xd;&#xa;&#x9;&#x9;&#x9;C48.293,62.909,48.262,62.921,48.228,62.932z"/>
   <path stroke-opacity="0.15" fill-opacity="0.15" d="M65.229,46.704c-0.463-0.288-1.002-0.469-1.633-0.538h2.064c0.551,0,1-0.449,1-1v-0.887&#xd;&#xa;&#x9;&#x9;&#x9;c0-0.552-0.449-1-1-1h-3.73c-0.5,0-0.926,0.373-0.99,0.867l-0.504,3.738c-0.043,0.307,0.063,0.621,0.283,0.843&#xd;&#xa;&#x9;&#x9;&#x9;c0.186,0.187,0.443,0.294,0.707,0.294c0.021,0,0.107-0.006,0.129-0.009c0.244-0.031,0.549-0.064,0.963-0.064&#xd;&#xa;&#x9;&#x9;&#x9;c1.23,0,1.23,0.484,1.23,0.725c0.002,0.18-0.049,0.316-0.16,0.429c-0.152,0.153-0.404,0.245-0.676,0.245&#xd;&#xa;&#x9;&#x9;&#x9;c-0.531,0-0.986-0.185-1.172-0.293c-0.152-0.091-0.328-0.139-0.506-0.139c-0.121,0-0.24,0.021-0.35,0.063&#xd;&#xa;&#x9;&#x9;&#x9;c-0.287,0.105-0.506,0.334-0.6,0.624l-0.264,0.802c-0.145,0.438,0.027,0.915,0.418,1.161c0.633,0.396,1.559,0.633,2.473,0.633&#xd;&#xa;&#x9;&#x9;&#x9;c2.225,0,3.902-1.572,3.902-3.656C66.814,48.309,66.213,47.241,65.229,46.704z M48.32,59.03c-2.054,0-3.662,1.656-3.662,3.77&#xd;&#xa;&#x9;&#x9;&#x9;c0,1.738,1.086,3.055,2.66,3.332c-0.081,0.021-0.165,0.039-0.25,0.051c-0.221,0.022-0.397,0.041-0.552,0.041l-0.198-0.01&#xd;&#xa;&#x9;&#x9;&#x9;c-0.246,0-0.483,0.091-0.669,0.257c-0.211,0.189-0.331,0.46-0.331,0.743v0.863c0,0.536,0.419,0.975,0.965,0.999&#xd;&#xa;&#x9;&#x9;&#x9;c0,0,0.212,0.005,0.216,0.005c0.304,0,0.624-0.025,0.903-0.07c1.098-0.126,2.109-0.595,2.848-1.318&#xd;&#xa;&#x9;&#x9;&#x9;c0.752-0.729,1.648-2.076,1.648-4.365C51.898,60.757,50.461,59.03,48.32,59.03z M48.201,63.396c-0.332,0-0.5-0.221-0.5-0.656&#xd;&#xa;&#x9;&#x9;&#x9;c0-0.437,0.164-0.906,0.523-0.906c0.506,0,0.6,0.781,0.605,1.302C48.699,63.299,48.47,63.396,48.201,63.396z"/>
   <path stroke-opacity="0.15" fill-opacity="0.15" d="M48.32,59.53c-1.773,0-3.162,1.437-3.162,3.27c0,1.673,1.174,2.887,2.791,2.887&#xd;&#xa;&#x9;&#x9;&#x9;c0.331,0,0.644-0.045,0.932-0.134c-0.121,0.19-0.265,0.361-0.431,0.513c-0.336,0.328-0.803,0.541-1.331,0.614&#xd;&#xa;&#x9;&#x9;&#x9;c-0.241,0.024-0.435,0.044-0.603,0.044c-0.052,0-0.181-0.01-0.198-0.01c-0.123,0-0.242,0.046-0.335,0.129&#xd;&#xa;&#x9;&#x9;&#x9;c-0.105,0.095-0.165,0.229-0.165,0.371v0.863c0,0.268,0.21,0.487,0.477,0.499l0.204,0.005c0.279,0,0.571-0.023,0.847-0.067&#xd;&#xa;&#x9;&#x9;&#x9;c0.987-0.113,1.896-0.533,2.557-1.181c0.684-0.661,1.496-1.893,1.496-4.006C51.398,61.021,50.189,59.53,48.32,59.53z&#xd;&#xa;&#x9;&#x9;&#x9; M49.305,63.325c-0.211,0.357-0.623,0.57-1.104,0.57c-0.737,0-1-0.598-1-1.156c0-0.828,0.421-1.406,1.023-1.406&#xd;&#xa;&#x9;&#x9;&#x9;c0.963,0,1.105,1.16,1.105,1.852C49.33,63.277,49.316,63.302,49.305,63.325z M64.965,47.128c-0.529-0.329-1.182-0.495-1.943-0.495&#xd;&#xa;&#x9;&#x9;&#x9;h-0.051l0.145-0.967h2.545c0.275,0,0.5-0.224,0.5-0.5v-0.887c0-0.276-0.225-0.5-0.5-0.5h-3.73c-0.25,0-0.463,0.185-0.496,0.434&#xd;&#xa;&#x9;&#x9;&#x9;l-0.502,3.741c-0.021,0.154,0.031,0.31,0.141,0.42c0.094,0.095,0.223,0.147,0.354,0.147c0.021,0,0.043-0.002,0.064-0.005&#xd;&#xa;&#x9;&#x9;&#x9;c0.262-0.033,0.586-0.068,1.027-0.068c1.148,0,1.73,0.409,1.73,1.219c0.004,0.313-0.1,0.577-0.307,0.787&#xd;&#xa;&#x9;&#x9;&#x9;c-0.246,0.249-0.621,0.393-1.029,0.393c-0.598,0-1.141-0.195-1.424-0.362c-0.078-0.046-0.166-0.069-0.254-0.069&#xd;&#xa;&#x9;&#x9;&#x9;c-0.061,0-0.119,0.011-0.176,0.032c-0.143,0.053-0.252,0.168-0.299,0.312l-0.264,0.803c-0.072,0.219,0.014,0.458,0.209,0.58&#xd;&#xa;&#x9;&#x9;&#x9;c0.557,0.349,1.383,0.557,2.207,0.557c1.939,0,3.402-1.356,3.402-3.156C66.314,48.494,65.801,47.586,64.965,47.128z"/>
   <linearGradient id="SVGID_1_" y1="67.0811" x1="48.2788" y2="59.0303" gradientUnits="userSpaceOnUse" x2="48.2788">
    <stop offset="0" style="stop-color:#D0CBC5"/>
    <stop offset="1" style="stop-color:#DFDCD4"/>
   </linearGradient>
   <path fill="url(#SVGID_1_)" d="M46.318,66.214c0.227,0.023,0.49,0,0.852-0.037c0.611-0.084,1.188-0.322,1.629-0.754&#xd;&#xa;&#x9;&#x9;&#x9;c0.516-0.469,0.889-1.152,1.031-2.064h-0.035c-0.432,0.529-1.055,0.828-1.846,0.828c-1.393,0-2.291-1.055-2.291-2.387&#xd;&#xa;&#x9;&#x9;&#x9;c0-1.475,1.066-2.77,2.662-2.77c1.594,0,2.578,1.283,2.578,3.297c0,1.703-0.576,2.902-1.344,3.646&#xd;&#xa;&#x9;&#x9;&#x9;c-0.6,0.588-1.426,0.947-2.266,1.043c-0.383,0.061-0.719,0.072-0.971,0.061V66.214z M46.701,61.739c0,0.973,0.588,1.656,1.5,1.656&#xd;&#xa;&#x9;&#x9;&#x9;c0.707,0,1.258-0.348,1.533-0.816c0.061-0.107,0.096-0.215,0.096-0.395c0-1.332-0.49-2.352-1.605-2.352&#xd;&#xa;&#x9;&#x9;&#x9;C47.338,59.833,46.701,60.624,46.701,61.739z"/>
   <path stroke-opacity="0.05" fill-opacity="0.05" d="M70.998,20.905H25.002c-2.481,0-4.5,2.019-4.5,4.5v45.988c0,2.481,2.019,4.5,4.5,4.5h45.996&#xd;&#xa;&#x9;&#x9;&#x9;c2.48,0,4.5-2.019,4.5-4.5V25.405C75.498,22.924,73.479,20.905,70.998,20.905z M26.958,53.894V42.904h10.489v10.989H26.958z&#xd;&#xa;&#x9;&#x9;&#x9; M42.5,37.904V27.361h11v10.543H42.5z M42.5,69.437V58.894h11v10.543H42.5z M58.445,53.894V42.904h10.596v10.989H58.445z"/>
   <path stroke-opacity="0.07" fill-opacity="0.07" d="M70.998,21.405H25.002c-2.206,0-4,1.794-4,4v45.988c0,2.206,1.794,4,4,4h45.996c2.205,0,4-1.794,4-4&#xd;&#xa;&#x9;&#x9;&#x9;V25.405C74.998,23.199,73.203,21.405,70.998,21.405z M26.458,54.394V42.404h11.489v11.989H26.458z M42,38.404V26.861h12v11.543H42&#xd;&#xa;&#x9;&#x9;&#x9;z M42,69.937V58.394h12v11.543H42z M64.15,65.77c0.086,0.05,0.178,0.094,0.271,0.132c0.225,0.089,0.297,0.162,0.309,0.163&#xd;&#xa;&#x9;&#x9;&#x9;c-0.01,0.189-0.402,0.261-0.65,0.261c-0.383,0-0.594-0.108-0.615-0.148c0.002-0.001,0.047-0.09,0.33-0.21&#xd;&#xa;&#x9;&#x9;&#x9;C63.922,65.913,64.039,65.847,64.15,65.77z M57.945,54.394V42.404h11.596v11.989H57.945z"/>
   <path stroke-opacity="0.1" fill-opacity="0.1" d="M70.998,21.905H25.002c-1.93,0-3.5,1.57-3.5,3.5v45.988c0,1.93,1.57,3.5,3.5,3.5h45.996&#xd;&#xa;&#x9;&#x9;&#x9;c1.93,0,3.5-1.57,3.5-3.5V25.405C74.498,23.476,72.928,21.905,70.998,21.905z M25.958,54.894V41.904h12.489v12.989H25.958z&#xd;&#xa;&#x9;&#x9;&#x9; M41.5,38.904V26.361h13v12.543H41.5z M41.5,70.437V57.894h13v12.543H41.5z M63.645,32.467l0.717-1.025v1.025H63.645z&#xd;&#xa;&#x9;&#x9;&#x9; M64.529,62.646c-0.188,0.087-0.352,0.214-0.484,0.369c-0.119-0.115-0.258-0.211-0.412-0.283&#xd;&#xa;&#x9;&#x9;&#x9;c-0.172-0.081-0.379-0.215-0.379-0.391c0-0.425,0.496-0.576,0.922-0.576c0.234,0,0.779,0.041,0.779,0.42&#xd;&#xa;&#x9;&#x9;&#x9;C64.955,62.271,64.955,62.449,64.529,62.646z M64.121,65.127c0.139,0.131,0.301,0.236,0.486,0.31&#xd;&#xa;&#x9;&#x9;&#x9;c0.623,0.247,0.623,0.528,0.623,0.621c0,0.566-0.621,0.768-1.15,0.768c-0.646,0-1.115-0.252-1.115-0.6&#xd;&#xa;&#x9;&#x9;&#x9;c0-0.157,0-0.449,0.633-0.719C63.805,65.419,63.98,65.288,64.121,65.127z M57.445,54.894V41.904h12.596v12.989H57.445z"/>
   <path stroke-opacity="0.15" fill-opacity="0.15" d="M70.998,22.405H25.002c-1.654,0-3,1.346-3,3v45.988c0,1.654,1.346,3,3,3h45.996c1.654,0,3-1.346,3-3&#xd;&#xa;&#x9;&#x9;&#x9;V25.405C73.998,23.751,72.652,22.405,70.998,22.405z M70.541,41.404v13.989H56.945V41.404H70.541z M62.686,32.967l2.176-3.113&#xd;&#xa;&#x9;&#x9;&#x9;v3.113H62.686z M55,57.394v13.543H41V57.394H55z M55,25.861v13.543H41V25.861H55z M38.947,41.404v13.989H25.458V41.404H38.947z&#xd;&#xa;&#x9;&#x9;&#x9; M64.738,63.1c-0.346,0.16-0.578,0.539-0.578,0.942c0,0.413,0.248,0.778,0.631,0.93c0.623,0.247,0.939,0.612,0.939,1.086&#xd;&#xa;&#x9;&#x9;&#x9;c0,0.758-0.664,1.268-1.65,1.268c-0.951,0-1.615-0.452-1.615-1.1c0-0.335,0.098-0.821,0.939-1.18&#xd;&#xa;&#x9;&#x9;&#x9;c0.492-0.208,0.729-0.799,0.525-1.319c-0.094-0.24-0.273-0.433-0.508-0.542c-0.305-0.143-0.668-0.404-0.668-0.844&#xd;&#xa;&#x9;&#x9;&#x9;c0-0.644,0.57-1.076,1.422-1.076c0.943,0,1.279,0.476,1.279,0.92C65.455,62.578,65.221,62.877,64.738,63.1z"/>
   <path stroke-opacity="0.15" fill-opacity="0.15" d="M70.998,22.905H25.002c-1.379,0-2.5,1.121-2.5,2.5v45.988c0,1.379,1.121,2.5,2.5,2.5h45.996&#xd;&#xa;&#x9;&#x9;&#x9;c1.379,0,2.5-1.121,2.5-2.5V25.405C73.498,24.026,72.377,22.905,70.998,22.905z M71.041,40.904v14.989H56.445V40.904H71.041z&#xd;&#xa;&#x9;&#x9;&#x9; M40.5,39.904V25.361h15v14.543H40.5z M46.913,51.56h-0.592l0.424-0.41c-0.001,0.012-0.001,0.023-0.001,0.035&#xd;&#xa;&#x9;&#x9;&#x9;C46.744,51.334,46.81,51.468,46.913,51.56z M49.893,47.254c0.063-0.234,0.094-0.471,0.094-0.716c0-0.715-0.256-1.274-0.711-1.622&#xd;&#xa;&#x9;&#x9;&#x9;c0.549,0.335,0.766,0.926,0.766,1.49C50.041,46.695,49.992,46.975,49.893,47.254z M55.5,56.894v14.543h-15V56.894H55.5z&#xd;&#xa;&#x9;&#x9;&#x9; M65.57,33.56c-0.115,0.082-0.195,0.213-0.207,0.362c-0.023-0.255-0.238-0.455-0.498-0.455h-3.121V33.44l3.238-4.634h0.379v4.346&#xd;&#xa;&#x9;&#x9;&#x9;C65.361,33.32,65.443,33.469,65.57,33.56z M31.983,29.031l0.047-0.025h0.274v6.797h-0.02V29.49&#xd;&#xa;&#x9;&#x9;&#x9;C32.285,29.284,32.161,29.107,31.983,29.031z M39.447,40.904v14.989H24.958V40.904H39.447z M33.734,62.634&#xd;&#xa;&#x9;&#x9;&#x9;c0.021-0.108,0.033-0.224,0.033-0.344c0-0.455-0.17-0.956-0.592-1.29c0.471,0.261,0.658,0.701,0.658,1.122&#xd;&#xa;&#x9;&#x9;&#x9;C33.834,62.305,33.8,62.477,33.734,62.634z M33.841,65.088c0.176,0.229,0.29,0.526,0.294,0.897c0,0.429-0.159,0.86-0.496,1.196&#xd;&#xa;&#x9;&#x9;&#x9;c0.267-0.343,0.412-0.78,0.404-1.228C34.039,65.637,33.969,65.345,33.841,65.088z M63.209,64.586&#xd;&#xa;&#x9;&#x9;&#x9;c0.248-0.105,0.354-0.425,0.256-0.677c-0.047-0.119-0.137-0.217-0.254-0.271c-0.617-0.288-0.957-0.749-0.957-1.297&#xd;&#xa;&#x9;&#x9;&#x9;c0-0.928,0.789-1.576,1.922-1.576c1.229,0,1.779,0.713,1.779,1.42c0,0.412-0.174,0.984-1.006,1.368&#xd;&#xa;&#x9;&#x9;&#x9;c-0.176,0.082-0.289,0.294-0.289,0.489c0,0.205,0.125,0.39,0.314,0.465c0.572,0.227,1.256,0.68,1.256,1.551&#xd;&#xa;&#x9;&#x9;&#x9;c0,1.041-0.885,1.768-2.15,1.768c-1.246,0-2.115-0.658-2.115-1.6C61.965,65.488,62.383,64.937,63.209,64.586z"/>
   <linearGradient id="SVGID_2_" y1="72.3936" x1="48.0005" y2="22.4058" gradientUnits="userSpaceOnUse" x2="48.0005">
    <stop offset="0" style="stop-color:#D0CBC5"/>
    <stop offset="0.5031" style="stop-color:#FAFCEF"/>
    <stop offset="0.9693" style="stop-color:#FFFFFF"/>
   </linearGradient>
   <path fill="url(#SVGID_2_)" d="M70.998,22.405H25.002c-1.104,0-2,0.896-2,2v45.988c0,1.104,0.896,2,2,2h45.996&#xd;&#xa;&#x9;&#x9;&#x9;c1.104,0,2-0.896,2-2V24.405C72.998,23.301,72.102,22.405,70.998,22.405z M63,63.091c-0.875-0.408-1.246-1.08-1.246-1.75&#xd;&#xa;&#x9;&#x9;&#x9;c0-1.236,1.043-2.076,2.422-2.076c1.512,0,2.279,0.936,2.279,1.92c0,0.658-0.336,1.379-1.295,1.822v0.035&#xd;&#xa;&#x9;&#x9;&#x9;c0.971,0.385,1.57,1.08,1.57,2.016c0,1.367-1.162,2.268-2.65,2.268c-1.631,0-2.615-0.961-2.615-2.1c0-0.982,0.588-1.691,1.549-2.1&#xd;&#xa;&#x9;&#x9;&#x9;L63,63.091z M56,55.394v15.543H40V55.394h15.945V39.404H40V23.861h16v15.543h15.541v15.989H56z M31.762,28.49l-1.355,0.732&#xd;&#xa;&#x9;&#x9;&#x9;l-0.204-0.805l1.703-0.912h0.899v7.797h-1.02V28.49H31.762z M39.947,39.404v15.989H24.458V39.404H39.947z M31.528,63.401H30.94&#xd;&#xa;&#x9;&#x9;&#x9;V62.61h0.588c0.768,0,1.739-0.396,1.739-1.32c0-0.623-0.396-1.174-1.366-1.174c-0.625,0-1.225,0.275-1.561,0.516l-0.287-0.768&#xd;&#xa;&#x9;&#x9;&#x9;c0.42-0.301,1.211-0.6,2.051-0.6c1.534,0,2.229,0.91,2.229,1.857c0,0.816-0.492,1.5-1.439,1.848v0.023&#xd;&#xa;&#x9;&#x9;&#x9;c0.961,0.182,1.729,0.9,1.74,1.992c0,1.246-0.984,2.338-2.843,2.338c-0.875,0-1.643-0.275-2.025-0.527l0.287-0.803&#xd;&#xa;&#x9;&#x9;&#x9;c0.301,0.18,0.984,0.479,1.727,0.479c1.343,0,1.774-0.852,1.763-1.512C33.531,63.87,32.548,63.401,31.528,63.401z M47.951,44.015&#xd;&#xa;&#x9;&#x9;&#x9;c-0.707,0-1.295,0.36-1.656,0.659l-0.336-0.743c0.529-0.444,1.309-0.792,2.195-0.792c1.68,0,2.387,1.152,2.387,2.268&#xd;&#xa;&#x9;&#x9;&#x9;c0,1.439-1.043,2.603-2.686,4.179l-0.611,0.574v0.025h3.488v0.875h-4.977v-0.648l0.828-0.801c1.99-1.891,2.902-2.897,2.902-4.072&#xd;&#xa;&#x9;&#x9;&#x9;C49.486,44.746,49.113,44.015,47.951,44.015z M61.244,32.967v-0.684l3.479-4.977h1.139v4.846h1.092v0.814h-1.092v2.135h-0.996&#xd;&#xa;&#x9;&#x9;&#x9;v-2.135H61.244z"/>
   <linearGradient id="SVGID_3_" y1="32.1523" x1="63.6064" y2="28.3262" gradientUnits="userSpaceOnUse" x2="63.6064">
    <stop offset="0" style="stop-color:#FCFDF7"/>
    <stop offset="1" style="stop-color:#FEFFFD"/>
   </linearGradient>
   <path fill="url(#SVGID_3_)" d="M64.219,29.477l-1.908,2.65v0.025h2.555v-2.604c0-0.408,0.012-0.814,0.037-1.223h-0.037&#xd;&#xa;&#x9;&#x9;&#x9;C64.627,28.781,64.434,29.117,64.219,29.477z"/>
   <linearGradient id="SVGID_4_" y1="62.708" x1="64.0986" y2="60.0205" gradientUnits="userSpaceOnUse" x2="64.0986">
    <stop offset="0" style="stop-color:#D5D0CA"/>
    <stop offset="1" style="stop-color:#DFDCD4"/>
   </linearGradient>
   <path fill="url(#SVGID_4_)" d="M64.248,62.708c0.672-0.229,1.188-0.709,1.188-1.416c0-0.623-0.371-1.271-1.318-1.271&#xd;&#xa;&#x9;&#x9;&#x9;c-0.877,0-1.355,0.576-1.355,1.248C62.748,62.048,63.35,62.468,64.248,62.708z"/>
   <linearGradient id="SVGID_5_" y1="66.5576" x1="64.1035" y2="63.4619" gradientUnits="userSpaceOnUse" x2="64.1035">
    <stop offset="0" style="stop-color:#D0CBC5"/>
    <stop offset="1" style="stop-color:#DAD7CF"/>
   </linearGradient>
   <path fill="url(#SVGID_5_)" d="M63.949,63.462c-0.912,0.264-1.404,0.877-1.404,1.619c-0.035,0.781,0.564,1.477,1.559,1.477&#xd;&#xa;&#x9;&#x9;&#x9;c0.947,0,1.561-0.588,1.561-1.393C65.664,64.229,65.004,63.763,63.949,63.462z"/>
   <linearGradient id="SVGID_6_" y1="51.1982" x1="63.3926" y2="43.2798" gradientUnits="userSpaceOnUse" x2="63.3926">
    <stop offset="0" style="stop-color:#EDECE2"/>
    <stop offset="1" style="stop-color:#FCFDF5"/>
   </linearGradient>
   <path fill="url(#SVGID_6_)" d="M65.66,44.166h-2.975l-0.301,2.004c0.18-0.024,0.348-0.037,0.637-0.037&#xd;&#xa;&#x9;&#x9;&#x9;c0.611,0,1.199,0.121,1.678,0.42c0.613,0.336,1.115,1.019,1.115,1.991c0,1.516-1.211,2.654-2.902,2.654&#xd;&#xa;&#x9;&#x9;&#x9;c-0.852,0-1.559-0.24-1.941-0.48l0.264-0.803c0.324,0.191,0.959,0.432,1.678,0.432c0.984,0,1.848-0.648,1.836-1.684&#xd;&#xa;&#x9;&#x9;&#x9;c0-1.008-0.684-1.714-2.23-1.714c-0.457,0-0.805,0.035-1.092,0.072l0.504-3.742h3.73V44.166z"/>
  </g>
 </g>
 <g id="_DO_NOT_EDIT_-_HIGHLIGHTS">
  <linearGradient id="HIGHLIGHT_RIM_1_" y1="0" x1="47.9995" y2="144.6673" gradientUnits="userSpaceOnUse" x2="47.9995">
   <stop offset="0" style="stop-color:#FFFFFF"/>
   <stop offset="1" style="stop-color:#000000"/>
  </linearGradient>
  <path fill="url(#HIGHLIGHT_RIM_1_)" fill-opacity="0.25" id="HIGHLIGHT_RIM" d="M48,7.979c-29.635,0-40,10.365-40,40&#xd;&#xa;&#x9;&#x9;c0,29.633,10.365,40,40,40c29.637,0,40-10.367,40-40C88,18.344,77.637,7.979,48,7.979z M48,87.002c-29.159,0-39-9.848-39-39.024&#xd;&#xa;&#x9;&#x9;C9,18.803,18.841,8.956,48,8.956c29.158,0,39,9.847,39,39.022C87,77.154,77.158,87.002,48,87.002z"/>
  <g id="DARK_BEVEL">
   <path fill="#FFFFFF" display="none" fill-opacity="0.05" id="SQUIRCLE" d="M48,87.979c-29.635,0-40-10.367-40-40&#xd;&#xa;&#x9;&#x9;&#x9;c0-29.634,10.365-40,40-40c29.637,0,40,10.365,40,40C88,77.611,77.637,87.979,48,87.979z"/>
   <path stroke-opacity="0.02" fill-opacity="0.02" d="M9.478,64.25C13.244,81.519,24.624,87.979,48,87.979c23.378,0,34.756-6.46,38.522-23.729H9.478z"/>
   <path stroke-opacity="0.02" fill-opacity="0.02" d="M10.242,67.25C14.659,82.271,26.031,87.979,48,87.979c21.971,0,33.342-5.708,37.758-20.729H10.242z"/>
   <path stroke-opacity="0.02" fill-opacity="0.02" d="M11.258,70.25C16.284,83.041,27.555,87.979,48,87.979c20.446,0,31.717-4.938,36.742-17.729H11.258z"/>
   <path stroke-opacity="0.02" fill-opacity="0.02" d="M12.636,73.25C18.211,83.815,29.241,87.979,48,87.979c18.76,0,29.79-4.163,35.365-14.729H12.636z"/>
   <path stroke-opacity="0.02" fill-opacity="0.02" d="M13.797,75.25C19.685,84.348,30.47,87.979,48,87.979c17.531,0,28.316-3.631,34.203-12.729H13.797z"/>
   <path stroke-opacity="0.02" fill-opacity="0.02" d="M15.255,77.25C21.396,84.878,31.821,87.979,48,87.979c16.18,0,26.604-3.101,32.745-10.729H15.255z"/>
   <path fill-opacity="0.02" d="M17.059,79.25c6.305,6.177,16.254,8.729,30.941,8.729c14.688,0,24.638-2.552,30.942-8.729H17.059z"/>
  </g>
  <g id="LIGHT_BEVEL">
   <path stroke-opacity="0.01" fill="#FFFFFF" fill-opacity="0.01" d="M48,8.979c-29.635,0-40,10.365-40,40c0,2.888,0.102,5.588,0.307,8.119l0.219,0.02h78.958&#xd;&#xa;&#x9;&#x9;&#x9;l0.21-0.019c0.205-2.531,0.307-5.23,0.307-8.12C88,19.344,77.637,8.979,48,8.979z"/>
   <path stroke-opacity="0.01" fill="#FFFFFF" fill-opacity="0.01" d="M48,7.979c-29.635,0-40,10.365-40,40c0,1.051,0.017,2.073,0.043,3.077l0.701,0.062H87.26&#xd;&#xa;&#x9;&#x9;&#x9;l0.697-0.063C87.983,50.051,88,49.029,88,47.978C88,18.344,77.637,7.979,48,7.979z"/>
   <path stroke-opacity="0.01" fill="#FFFFFF" fill-opacity="0.01" d="M8.965,46.116h78.072l0.941-0.084C87.521,17.897,76.975,7.979,48,7.979&#xd;&#xa;&#x9;&#x9;&#x9;c-28.973,0-39.521,9.919-39.978,38.054L8.965,46.116z"/>
   <path stroke-opacity="0.01" fill="#FFFFFF" fill-opacity="0.01" d="M9.186,41.116h77.628l0.961-0.086C86.147,16.713,75.187,7.979,48,7.979&#xd;&#xa;&#x9;&#x9;&#x9;c-27.185,0-38.147,8.735-39.775,33.053L9.186,41.116z"/>
   <path stroke-opacity="0.01" fill="#FFFFFF" fill-opacity="0.01" d="M9.186,37.116h77.628c0.201,0,0.397-0.036,0.594-0.066&#xd;&#xa;&#x9;&#x9;&#x9;C84.854,15.753,73.648,7.979,48,7.979c-25.646,0-36.854,7.774-39.408,29.072C8.789,37.08,8.984,37.116,9.186,37.116z"/>
   <path stroke-opacity="0.01" fill="#FFFFFF" fill-opacity="0.01" d="M48,7.979c-24.004,0-35.363,6.805-38.814,25.138h77.628&#xd;&#xa;&#x9;&#x9;&#x9;C83.363,14.783,72.006,7.979,48,7.979z"/>
   <path stroke-opacity="0.01" fill="#FFFFFF" fill-opacity="0.01" d="M84.074,29.67l1.6-0.376c0.083-0.02,0.158-0.058,0.239-0.084&#xd;&#xa;&#x9;&#x9;&#x9;C81.605,13.805,70.22,7.979,48,7.979c-22.218,0-33.604,5.827-37.913,21.231c0.081,0.026,0.156,0.064,0.239,0.084l1.599,0.376&#xd;&#xa;&#x9;&#x9;&#x9;c0.226,0.053,0.456,0.08,0.688,0.08h70.773C83.618,29.75,83.849,29.723,84.074,29.67z"/>
   <path stroke-opacity="0.01" fill="#FFFFFF" fill-opacity="0.01" d="M12.613,26.75h70.773l1.6-0.376C80.091,13.093,68.794,7.979,48,7.979&#xd;&#xa;&#x9;&#x9;&#x9;c-20.792,0-32.09,5.115-36.986,18.395L12.613,26.75z"/>
   <path stroke-opacity="0.01" fill="#FFFFFF" fill-opacity="0.01" d="M12.613,24.75h70.773c0.305,0,0.595-0.081,0.86-0.208C78.999,12.621,67.81,7.979,48,7.979&#xd;&#xa;&#x9;&#x9;&#x9;c-19.808,0-30.998,4.643-36.247,16.563C12.019,24.669,12.309,24.75,12.613,24.75z"/>
   <path stroke-opacity="0.01" fill="#FFFFFF" fill-opacity="0.01" d="M83.387,22.75C77.82,12.153,66.786,7.979,48,7.979c-18.785,0-29.819,4.174-35.387,14.771&#xd;&#xa;&#x9;&#x9;&#x9;H83.387z"/>
  </g>
 </g>
 <g id="GUIDES"/>
</svg>
